<svg version="1.1" xmlns="http://www.w3.org/2000/svg" xmlns:xlink="http://www.w3.org/1999/xlink" width="804" height="355"><defs/><g><text fill="#eeeeee" stroke="none" font-family="Arial" font-size="24px" font-style="normal" font-weight="normal" text-decoration="none" x="0" y="0">UNREGISTERED</text><text fill="#eeeeee" stroke="none" font-family="Arial" font-size="24px" font-style="normal" font-weight="normal" text-decoration="none" x="0" y="30">UNREGISTERED</text><text fill="#eeeeee" stroke="none" font-family="Arial" font-size="24px" font-style="normal" font-weight="normal" text-decoration="none" x="0" y="60">UNREGISTERED</text><text fill="#eeeeee" stroke="none" font-family="Arial" font-size="24px" font-style="normal" font-weight="normal" text-decoration="none" x="0" y="90">UNREGISTERED</text><text fill="#eeeeee" stroke="none" font-family="Arial" font-size="24px" font-style="normal" font-weight="normal" text-decoration="none" x="0" y="120">UNREGISTERED</text><text fill="#eeeeee" stroke="none" font-family="Arial" font-size="24px" font-style="normal" font-weight="normal" text-decoration="none" x="0" y="150">UNREGISTERED</text><text fill="#eeeeee" stroke="none" font-family="Arial" font-size="24px" font-style="normal" font-weight="normal" text-decoration="none" x="0" y="180">UNREGISTERED</text><text fill="#eeeeee" stroke="none" font-family="Arial" font-size="24px" font-style="normal" font-weight="normal" text-decoration="none" x="0" y="210">UNREGISTERED</text><text fill="#eeeeee" stroke="none" font-family="Arial" font-size="24px" font-style="normal" font-weight="normal" text-decoration="none" x="0" y="240">UNREGISTERED</text><text fill="#eeeeee" stroke="none" font-family="Arial" font-size="24px" font-style="normal" font-weight="normal" text-decoration="none" x="0" y="270">UNREGISTERED</text><text fill="#eeeeee" stroke="none" font-family="Arial" font-size="24px" font-style="normal" font-weight="normal" text-decoration="none" x="0" y="300">UNREGISTERED</text><text fill="#eeeeee" stroke="none" font-family="Arial" font-size="24px" font-style="normal" font-weight="normal" text-decoration="none" x="0" y="330">UNREGISTERED</text><text fill="#eeeeee" stroke="none" font-family="Arial" font-size="24px" font-style="normal" font-weight="normal" text-decoration="none" x="200" y="0">UNREGISTERED</text><text fill="#eeeeee" stroke="none" font-family="Arial" font-size="24px" font-style="normal" font-weight="normal" text-decoration="none" x="200" y="30">UNREGISTERED</text><text fill="#eeeeee" stroke="none" font-family="Arial" font-size="24px" font-style="normal" font-weight="normal" text-decoration="none" x="200" y="60">UNREGISTERED</text><text fill="#eeeeee" stroke="none" font-family="Arial" font-size="24px" font-style="normal" font-weight="normal" text-decoration="none" x="200" y="90">UNREGISTERED</text><text fill="#eeeeee" stroke="none" font-family="Arial" font-size="24px" font-style="normal" font-weight="normal" text-decoration="none" x="200" y="120">UNREGISTERED</text><text fill="#eeeeee" stroke="none" font-family="Arial" font-size="24px" font-style="normal" font-weight="normal" text-decoration="none" x="200" y="150">UNREGISTERED</text><text fill="#eeeeee" stroke="none" font-family="Arial" font-size="24px" font-style="normal" font-weight="normal" text-decoration="none" x="200" y="180">UNREGISTERED</text><text fill="#eeeeee" stroke="none" font-family="Arial" font-size="24px" font-style="normal" font-weight="normal" text-decoration="none" x="200" y="210">UNREGISTERED</text><text fill="#eeeeee" stroke="none" font-family="Arial" font-size="24px" font-style="normal" font-weight="normal" text-decoration="none" x="200" y="240">UNREGISTERED</text><text fill="#eeeeee" stroke="none" font-family="Arial" font-size="24px" font-style="normal" font-weight="normal" text-decoration="none" x="200" y="270">UNREGISTERED</text><text fill="#eeeeee" stroke="none" font-family="Arial" font-size="24px" font-style="normal" font-weight="normal" text-decoration="none" x="200" y="300">UNREGISTERED</text><text fill="#eeeeee" stroke="none" font-family="Arial" font-size="24px" font-style="normal" font-weight="normal" text-decoration="none" x="200" y="330">UNREGISTERED</text><text fill="#eeeeee" stroke="none" font-family="Arial" font-size="24px" font-style="normal" font-weight="normal" text-decoration="none" x="400" y="0">UNREGISTERED</text><text fill="#eeeeee" stroke="none" font-family="Arial" font-size="24px" font-style="normal" font-weight="normal" text-decoration="none" x="400" y="30">UNREGISTERED</text><text fill="#eeeeee" stroke="none" font-family="Arial" font-size="24px" font-style="normal" font-weight="normal" text-decoration="none" x="400" y="60">UNREGISTERED</text><text fill="#eeeeee" stroke="none" font-family="Arial" font-size="24px" font-style="normal" font-weight="normal" text-decoration="none" x="400" y="90">UNREGISTERED</text><text fill="#eeeeee" stroke="none" font-family="Arial" font-size="24px" font-style="normal" font-weight="normal" text-decoration="none" x="400" y="120">UNREGISTERED</text><text fill="#eeeeee" stroke="none" font-family="Arial" font-size="24px" font-style="normal" font-weight="normal" text-decoration="none" x="400" y="150">UNREGISTERED</text><text fill="#eeeeee" stroke="none" font-family="Arial" font-size="24px" font-style="normal" font-weight="normal" text-decoration="none" x="400" y="180">UNREGISTERED</text><text fill="#eeeeee" stroke="none" font-family="Arial" font-size="24px" font-style="normal" font-weight="normal" text-decoration="none" x="400" y="210">UNREGISTERED</text><text fill="#eeeeee" stroke="none" font-family="Arial" font-size="24px" font-style="normal" font-weight="normal" text-decoration="none" x="400" y="240">UNREGISTERED</text><text fill="#eeeeee" stroke="none" font-family="Arial" font-size="24px" font-style="normal" font-weight="normal" text-decoration="none" x="400" y="270">UNREGISTERED</text><text fill="#eeeeee" stroke="none" font-family="Arial" font-size="24px" font-style="normal" font-weight="normal" text-decoration="none" x="400" y="300">UNREGISTERED</text><text fill="#eeeeee" stroke="none" font-family="Arial" font-size="24px" font-style="normal" font-weight="normal" text-decoration="none" x="400" y="330">UNREGISTERED</text><text fill="#eeeeee" stroke="none" font-family="Arial" font-size="24px" font-style="normal" font-weight="normal" text-decoration="none" x="600" y="0">UNREGISTERED</text><text fill="#eeeeee" stroke="none" font-family="Arial" font-size="24px" font-style="normal" font-weight="normal" text-decoration="none" x="600" y="30">UNREGISTERED</text><text fill="#eeeeee" stroke="none" font-family="Arial" font-size="24px" font-style="normal" font-weight="normal" text-decoration="none" x="600" y="60">UNREGISTERED</text><text fill="#eeeeee" stroke="none" font-family="Arial" font-size="24px" font-style="normal" font-weight="normal" text-decoration="none" x="600" y="90">UNREGISTERED</text><text fill="#eeeeee" stroke="none" font-family="Arial" font-size="24px" font-style="normal" font-weight="normal" text-decoration="none" x="600" y="120">UNREGISTERED</text><text fill="#eeeeee" stroke="none" font-family="Arial" font-size="24px" font-style="normal" font-weight="normal" text-decoration="none" x="600" y="150">UNREGISTERED</text><text fill="#eeeeee" stroke="none" font-family="Arial" font-size="24px" font-style="normal" font-weight="normal" text-decoration="none" x="600" y="180">UNREGISTERED</text><text fill="#eeeeee" stroke="none" font-family="Arial" font-size="24px" font-style="normal" font-weight="normal" text-decoration="none" x="600" y="210">UNREGISTERED</text><text fill="#eeeeee" stroke="none" font-family="Arial" font-size="24px" font-style="normal" font-weight="normal" text-decoration="none" x="600" y="240">UNREGISTERED</text><text fill="#eeeeee" stroke="none" font-family="Arial" font-size="24px" font-style="normal" font-weight="normal" text-decoration="none" x="600" y="270">UNREGISTERED</text><text fill="#eeeeee" stroke="none" font-family="Arial" font-size="24px" font-style="normal" font-weight="normal" text-decoration="none" x="600" y="300">UNREGISTERED</text><text fill="#eeeeee" stroke="none" font-family="Arial" font-size="24px" font-style="normal" font-weight="normal" text-decoration="none" x="600" y="330">UNREGISTERED</text><text fill="#eeeeee" stroke="none" font-family="Arial" font-size="24px" font-style="normal" font-weight="normal" text-decoration="none" x="800" y="0">UNREGISTERED</text><text fill="#eeeeee" stroke="none" font-family="Arial" font-size="24px" font-style="normal" font-weight="normal" text-decoration="none" x="800" y="30">UNREGISTERED</text><text fill="#eeeeee" stroke="none" font-family="Arial" font-size="24px" font-style="normal" font-weight="normal" text-decoration="none" x="800" y="60">UNREGISTERED</text><text fill="#eeeeee" stroke="none" font-family="Arial" font-size="24px" font-style="normal" font-weight="normal" text-decoration="none" x="800" y="90">UNREGISTERED</text><text fill="#eeeeee" stroke="none" font-family="Arial" font-size="24px" font-style="normal" font-weight="normal" text-decoration="none" x="800" y="120">UNREGISTERED</text><text fill="#eeeeee" stroke="none" font-family="Arial" font-size="24px" font-style="normal" font-weight="normal" text-decoration="none" x="800" y="150">UNREGISTERED</text><text fill="#eeeeee" stroke="none" font-family="Arial" font-size="24px" font-style="normal" font-weight="normal" text-decoration="none" x="800" y="180">UNREGISTERED</text><text fill="#eeeeee" stroke="none" font-family="Arial" font-size="24px" font-style="normal" font-weight="normal" text-decoration="none" x="800" y="210">UNREGISTERED</text><text fill="#eeeeee" stroke="none" font-family="Arial" font-size="24px" font-style="normal" font-weight="normal" text-decoration="none" x="800" y="240">UNREGISTERED</text><text fill="#eeeeee" stroke="none" font-family="Arial" font-size="24px" font-style="normal" font-weight="normal" text-decoration="none" x="800" y="270">UNREGISTERED</text><text fill="#eeeeee" stroke="none" font-family="Arial" font-size="24px" font-style="normal" font-weight="normal" text-decoration="none" x="800" y="300">UNREGISTERED</text><text fill="#eeeeee" stroke="none" font-family="Arial" font-size="24px" font-style="normal" font-weight="normal" text-decoration="none" x="800" y="330">UNREGISTERED</text><g transform="translate(-118,-38) scale(1,1)"><rect fill="#C0C0C0" stroke="none" x="415" y="55" width="76.80000000000001" height="15" opacity="0.2"/></g><g transform="translate(-118,-38) scale(1,1)"><rect fill="#C0C0C0" stroke="none" x="415" y="69" width="192" height="194" opacity="0.2"/></g><g transform="translate(-118,-38) scale(1,1)"><rect fill="#ffffff" stroke="none" x="408" y="63" width="192" height="193"/></g><g transform="translate(-118,-38) scale(1,1)"><path fill="none" stroke="#000000" d="M 408 63 L 600 63 L 600 256 L 408 256 L 408 63 Z Z" stroke-miterlimit="10"/></g><g transform="translate(-118,-38) scale(1,1)"><rect fill="#ffffff" stroke="none" x="408" y="48" width="76.80000000000001" height="15"/></g><g transform="translate(-118,-38) scale(1,1)"><path fill="none" stroke="#000000" d="M 408 48 L 484.8 48 L 484.8 63 L 408 63 L 408 48 Z Z" stroke-miterlimit="10"/></g><g transform="translate(-118,-38) scale(1,1)"><rect fill="#ffffff" stroke="none" x="408" y="62" width="192" height="194"/></g><g transform="translate(-118,-38) scale(1,1)"><path fill="none" stroke="#000000" d="M 408 62 L 600 62 L 600 256 L 408 256 L 408 62 Z Z" stroke-miterlimit="10"/></g><g transform="translate(-118,-38) scale(1,1)"><g><path fill="none" stroke="none"/><text fill="#000000" stroke="none" font-family="Arial" font-size="13px" font-style="normal" font-weight="bold" text-decoration="none" x="485.944091796875" y="81">Shifts</text></g></g><g transform="translate(-118,-38) scale(1,1)"><rect fill="#C0C0C0" stroke="none" x="431" y="103" width="65.03515625" height="15" opacity="0.2"/></g><g transform="translate(-118,-38) scale(1,1)"><rect fill="#C0C0C0" stroke="none" x="431" y="117" width="162.587890625" height="25" opacity="0.2"/></g><g transform="translate(-118,-38) scale(1,1)"><rect fill="#ffffff" stroke="none" x="424" y="111" width="162.587890625" height="24"/></g><g transform="translate(-118,-38) scale(1,1)"><path fill="none" stroke="#000000" d="M 424 111 L 586.587890625 111 L 586.587890625 135 L 424 135 L 424 111 Z Z" stroke-miterlimit="10"/></g><g transform="translate(-118,-38) scale(1,1)"><rect fill="#ffffff" stroke="none" x="424" y="96" width="65.03515625" height="15"/></g><g transform="translate(-118,-38) scale(1,1)"><path fill="none" stroke="#000000" d="M 424 96 L 489.03515625 96 L 489.03515625 111 L 424 111 L 424 96 Z Z" stroke-miterlimit="10"/></g><g transform="translate(-118,-38) scale(1,1)"><rect fill="#ffffff" stroke="none" x="424" y="110" width="162.587890625" height="25"/></g><g transform="translate(-118,-38) scale(1,1)"><path fill="none" stroke="#000000" d="M 424 110 L 586.587890625 110 L 586.587890625 135 L 424 135 L 424 110 Z Z" stroke-miterlimit="10"/></g><g transform="translate(-118,-38) scale(1,1)"><path fill="none" stroke="#000000" d="M 481.03515625 99 L 481.03515625 103" stroke-miterlimit="10"/></g><g transform="translate(-118,-38) scale(1,1)"><path fill="none" stroke="#000000" d="M 478.03515625 107 L 478.03515625 103 L 484.03515625 103" stroke-miterlimit="10"/></g><g transform="translate(-118,-38) scale(1,1)"><path fill="none" stroke="#000000" d="M 484.03515625 107 L 484.03515625 103 L 478.03515625 103" stroke-miterlimit="10"/></g><g transform="translate(-118,-38) scale(1,1)"><g><path fill="none" stroke="none"/><text fill="#000000" stroke="none" font-family="Arial" font-size="13px" font-style="normal" font-weight="bold" text-decoration="none" x="465.56396484375" y="129">Management</text></g></g><g transform="translate(-118,-38) scale(1,1)"><rect fill="#C0C0C0" stroke="none" x="431" y="199" width="21.513085937500023" height="15" opacity="0.2"/></g><g transform="translate(-118,-38) scale(1,1)"><rect fill="#C0C0C0" stroke="none" x="431" y="213" width="53.78271484375" height="25" opacity="0.2"/></g><g transform="translate(-118,-38) scale(1,1)"><rect fill="#ffffff" stroke="none" x="424" y="207" width="53.78271484375" height="24"/></g><g transform="translate(-118,-38) scale(1,1)"><path fill="none" stroke="#000000" d="M 424 207 L 477.78271484375 207 L 477.78271484375 231 L 424 231 L 424 207 Z Z" stroke-miterlimit="10"/></g><g transform="translate(-118,-38) scale(1,1)"><rect fill="#ffffff" stroke="none" x="424" y="192" width="21.513085937500023" height="15"/></g><g transform="translate(-118,-38) scale(1,1)"><path fill="none" stroke="#000000" d="M 424 192 L 445.5130859375 192 L 445.5130859375 207 L 424 207 L 424 192 Z Z" stroke-miterlimit="10"/></g><g transform="translate(-118,-38) scale(1,1)"><rect fill="#ffffff" stroke="none" x="424" y="206" width="53.78271484375" height="25"/></g><g transform="translate(-118,-38) scale(1,1)"><path fill="none" stroke="#000000" d="M 424 206 L 477.78271484375 206 L 477.78271484375 231 L 424 231 L 424 206 Z Z" stroke-miterlimit="10"/></g><g transform="translate(-118,-38) scale(1,1)"><path fill="none" stroke="#000000" d="M 436.5130859375 195 L 430.5130859375 202 L 442.5130859375 202 L 436.5130859375 195" stroke-miterlimit="10"/></g><g transform="translate(-118,-38) scale(1,1)"><g><path fill="none" stroke="none"/><text fill="#000000" stroke="none" font-family="Arial" font-size="13px" font-style="normal" font-weight="bold" text-decoration="none" x="436.450439453125" y="225">Shift</text></g></g><g transform="translate(-118,-38) scale(1,1)"><rect fill="#C0C0C0" stroke="none" x="447" y="351" width="53.88105468750001" height="15" opacity="0.2"/></g><g transform="translate(-118,-38) scale(1,1)"><rect fill="#C0C0C0" stroke="none" x="447" y="365" width="134.70263671875" height="25" opacity="0.2"/></g><g transform="translate(-118,-38) scale(1,1)"><rect fill="#ffffff" stroke="none" x="440" y="359" width="134.70263671875" height="24"/></g><g transform="translate(-118,-38) scale(1,1)"><path fill="none" stroke="#000000" d="M 440 359 L 574.70263671875 359 L 574.70263671875 383 L 440 383 L 440 359 Z Z" stroke-miterlimit="10"/></g><g transform="translate(-118,-38) scale(1,1)"><rect fill="#ffffff" stroke="none" x="440" y="344" width="53.88105468750001" height="15"/></g><g transform="translate(-118,-38) scale(1,1)"><path fill="none" stroke="#000000" d="M 440 344 L 493.8810546875 344 L 493.8810546875 359 L 440 359 L 440 344 Z Z" stroke-miterlimit="10"/></g><g transform="translate(-118,-38) scale(1,1)"><rect fill="#ffffff" stroke="none" x="440" y="358" width="134.70263671875" height="25"/></g><g transform="translate(-118,-38) scale(1,1)"><path fill="none" stroke="#000000" d="M 440 358 L 574.70263671875 358 L 574.70263671875 383 L 440 383 L 440 358 Z Z" stroke-miterlimit="10"/></g><g transform="translate(-118,-38) scale(1,1)"><g><path fill="none" stroke="none"/><text fill="#000000" stroke="none" font-family="Arial" font-size="13px" font-style="normal" font-weight="bold" text-decoration="none" x="486.035888671875" y="377">Orders</text></g></g><g transform="translate(-118,-38) scale(1,1)"><rect fill="#C0C0C0" stroke="none" x="135" y="159" width="56.48359375000001" height="15" opacity="0.2"/></g><g transform="translate(-118,-38) scale(1,1)"><rect fill="#C0C0C0" stroke="none" x="135" y="173" width="141.208984375" height="25" opacity="0.2"/></g><g transform="translate(-118,-38) scale(1,1)"><rect fill="#ffffff" stroke="none" x="128" y="167" width="141.208984375" height="24"/></g><g transform="translate(-118,-38) scale(1,1)"><path fill="none" stroke="#000000" d="M 128 167 L 269.208984375 167 L 269.208984375 191 L 128 191 L 128 167 Z Z" stroke-miterlimit="10"/></g><g transform="translate(-118,-38) scale(1,1)"><rect fill="#ffffff" stroke="none" x="128" y="152" width="56.48359375000001" height="15"/></g><g transform="translate(-118,-38) scale(1,1)"><path fill="none" stroke="#000000" d="M 128 152 L 184.48359375 152 L 184.48359375 167 L 128 167 L 128 152 Z Z" stroke-miterlimit="10"/></g><g transform="translate(-118,-38) scale(1,1)"><rect fill="#ffffff" stroke="none" x="128" y="166" width="141.208984375" height="25"/></g><g transform="translate(-118,-38) scale(1,1)"><path fill="none" stroke="#000000" d="M 128 166 L 269.208984375 166 L 269.208984375 191 L 128 191 L 128 166 Z Z" stroke-miterlimit="10"/></g><g transform="translate(-118,-38) scale(1,1)"><g><path fill="none" stroke="none"/><text fill="#000000" stroke="none" font-family="Arial" font-size="13px" font-style="normal" font-weight="bold" text-decoration="none" x="177.2890625" y="185">Claims</text></g></g><g transform="translate(-118,-38) scale(1,1)"><rect fill="#C0C0C0" stroke="none" x="135" y="287" width="62.252343749999994" height="15" opacity="0.2"/></g><g transform="translate(-118,-38) scale(1,1)"><rect fill="#C0C0C0" stroke="none" x="135" y="301" width="155.630859375" height="25" opacity="0.2"/></g><g transform="translate(-118,-38) scale(1,1)"><rect fill="#ffffff" stroke="none" x="128" y="295" width="155.630859375" height="24"/></g><g transform="translate(-118,-38) scale(1,1)"><path fill="none" stroke="#000000" d="M 128 295 L 283.630859375 295 L 283.630859375 319 L 128 319 L 128 295 Z Z" stroke-miterlimit="10"/></g><g transform="translate(-118,-38) scale(1,1)"><rect fill="#ffffff" stroke="none" x="128" y="280" width="62.252343749999994" height="15"/></g><g transform="translate(-118,-38) scale(1,1)"><path fill="none" stroke="#000000" d="M 128 280 L 190.25234375 280 L 190.25234375 295 L 128 295 L 128 280 Z Z" stroke-miterlimit="10"/></g><g transform="translate(-118,-38) scale(1,1)"><rect fill="#ffffff" stroke="none" x="128" y="294" width="155.630859375" height="25"/></g><g transform="translate(-118,-38) scale(1,1)"><path fill="none" stroke="#000000" d="M 128 294 L 283.630859375 294 L 283.630859375 319 L 128 319 L 128 294 Z Z" stroke-miterlimit="10"/></g><g transform="translate(-118,-38) scale(1,1)"><g><path fill="none" stroke="none"/><text fill="#000000" stroke="none" font-family="Arial" font-size="13px" font-style="normal" font-weight="bold" text-decoration="none" x="170.4208984375" y="313">Documents</text></g></g><g transform="translate(-118,-38) scale(1,1)"><rect fill="#C0C0C0" stroke="none" x="759" y="79" width="64" height="15" opacity="0.2"/></g><g transform="translate(-118,-38) scale(1,1)"><rect fill="#C0C0C0" stroke="none" x="759" y="93" width="160" height="146" opacity="0.2"/></g><g transform="translate(-118,-38) scale(1,1)"><rect fill="#ffffff" stroke="none" x="752" y="87" width="160" height="145"/></g><g transform="translate(-118,-38) scale(1,1)"><path fill="none" stroke="#000000" d="M 752 87 L 912 87 L 912 232 L 752 232 L 752 87 Z Z" stroke-miterlimit="10"/></g><g transform="translate(-118,-38) scale(1,1)"><rect fill="#ffffff" stroke="none" x="752" y="72" width="64" height="15"/></g><g transform="translate(-118,-38) scale(1,1)"><path fill="none" stroke="#000000" d="M 752 72 L 816 72 L 816 87 L 752 87 L 752 72 Z Z" stroke-miterlimit="10"/></g><g transform="translate(-118,-38) scale(1,1)"><rect fill="#ffffff" stroke="none" x="752" y="86" width="160" height="146"/></g><g transform="translate(-118,-38) scale(1,1)"><path fill="none" stroke="#000000" d="M 752 86 L 912 86 L 912 232 L 752 232 L 752 86 Z Z" stroke-miterlimit="10"/></g><g transform="translate(-118,-38) scale(1,1)"><g><path fill="none" stroke="none"/><text fill="#000000" stroke="none" font-family="Arial" font-size="13px" font-style="normal" font-weight="bold" text-decoration="none" x="797.205322265625" y="105">Warehouse</text></g></g><g transform="translate(-118,-38) scale(1,1)"><rect fill="#C0C0C0" stroke="none" x="775" y="135" width="50.989062500000045" height="15" opacity="0.2"/></g><g transform="translate(-118,-38) scale(1,1)"><rect fill="#C0C0C0" stroke="none" x="775" y="149" width="127.47265625" height="25" opacity="0.2"/></g><g transform="translate(-118,-38) scale(1,1)"><rect fill="#ffffff" stroke="none" x="768" y="143" width="127.47265625" height="24"/></g><g transform="translate(-118,-38) scale(1,1)"><path fill="none" stroke="#000000" d="M 768 143 L 895.47265625 143 L 895.47265625 167 L 768 167 L 768 143 Z Z" stroke-miterlimit="10"/></g><g transform="translate(-118,-38) scale(1,1)"><rect fill="#ffffff" stroke="none" x="768" y="128" width="50.989062500000045" height="15"/></g><g transform="translate(-118,-38) scale(1,1)"><path fill="none" stroke="#000000" d="M 768 128 L 818.9890625 128 L 818.9890625 143 L 768 143 L 768 128 Z Z" stroke-miterlimit="10"/></g><g transform="translate(-118,-38) scale(1,1)"><rect fill="#ffffff" stroke="none" x="768" y="142" width="127.47265625" height="25"/></g><g transform="translate(-118,-38) scale(1,1)"><path fill="none" stroke="#000000" d="M 768 142 L 895.47265625 142 L 895.47265625 167 L 768 167 L 768 142 Z Z" stroke-miterlimit="10"/></g><g transform="translate(-118,-38) scale(1,1)"><path fill="none" stroke="#000000" d="M 810.9890625 131 L 810.9890625 135" stroke-miterlimit="10"/></g><g transform="translate(-118,-38) scale(1,1)"><path fill="none" stroke="#000000" d="M 807.9890625 139 L 807.9890625 135 L 813.9890625 135" stroke-miterlimit="10"/></g><g transform="translate(-118,-38) scale(1,1)"><path fill="none" stroke="#000000" d="M 813.9890625 139 L 813.9890625 135 L 807.9890625 135" stroke-miterlimit="10"/></g><g transform="translate(-118,-38) scale(1,1)"><g><path fill="none" stroke="none"/><text fill="#000000" stroke="none" font-family="Arial" font-size="13px" font-style="normal" font-weight="bold" text-decoration="none" x="772.5" y="161">Stock Management</text></g></g><g transform="translate(-118,-38) scale(1,1)"><path fill="none" stroke="#000000" d="M 507 343 L 505 257" stroke-miterlimit="10" stroke-dasharray="3"/></g><g transform="translate(-118,-38) scale(1,1)"><path fill="none" stroke="#000000" d="M 509.44465728583253 267.0620585175945 L 505 257 L 501.0278974963755 267.2577971173493" stroke-miterlimit="10"/></g><g transform="translate(-118,-38) scale(1,1)"><g><path fill="none" stroke="none"/><text fill="#000000" stroke="none" font-family="Arial" font-size="13px" font-style="normal" font-weight="normal" text-decoration="none" x="447.5" y="303.5">«expose»</text></g></g><g transform="translate(-118,-38) scale(1,1)"><path fill="none" stroke="#000000" d="M 751 152 L 601 152" stroke-miterlimit="10" stroke-dasharray="3"/></g><g transform="translate(-118,-38) scale(1,1)"><path fill="none" stroke="#000000" d="M 611.1626748576241 147.790482243984 L 601 152 L 611.1626748576241 156.209517756016" stroke-miterlimit="10"/></g><g transform="translate(-118,-38) scale(1,1)"><path fill="none" stroke="#000000" d="M 270 182 L 423 207" stroke-miterlimit="10" stroke-dasharray="3"/></g><g transform="translate(-118,-38) scale(1,1)"><path fill="none" stroke="#000000" d="M 412.2915075192901 209.51558915377294 L 423 207 L 413.6491622012927 201.20674249991706" stroke-miterlimit="10"/></g><g transform="translate(-118,-38) scale(1,1)"><rect fill="#C0C0C0" stroke="none" x="775" y="183" width="47.61972656249998" height="15" opacity="0.2"/></g><g transform="translate(-118,-38) scale(1,1)"><rect fill="#C0C0C0" stroke="none" x="775" y="197" width="119.04931640625" height="25" opacity="0.2"/></g><g transform="translate(-118,-38) scale(1,1)"><rect fill="#ffffff" stroke="none" x="768" y="191" width="119.04931640625" height="24"/></g><g transform="translate(-118,-38) scale(1,1)"><path fill="none" stroke="#000000" d="M 768 191 L 887.04931640625 191 L 887.04931640625 215 L 768 215 L 768 191 Z Z" stroke-miterlimit="10"/></g><g transform="translate(-118,-38) scale(1,1)"><rect fill="#ffffff" stroke="none" x="768" y="176" width="47.61972656249998" height="15"/></g><g transform="translate(-118,-38) scale(1,1)"><path fill="none" stroke="#000000" d="M 768 176 L 815.6197265625 176 L 815.6197265625 191 L 768 191 L 768 176 Z Z" stroke-miterlimit="10"/></g><g transform="translate(-118,-38) scale(1,1)"><rect fill="#ffffff" stroke="none" x="768" y="190" width="119.04931640625" height="25"/></g><g transform="translate(-118,-38) scale(1,1)"><path fill="none" stroke="#000000" d="M 768 190 L 887.04931640625 190 L 887.04931640625 215 L 768 215 L 768 190 Z Z" stroke-miterlimit="10"/></g><g transform="translate(-118,-38) scale(1,1)"><path fill="none" stroke="#000000" d="M 807.6197265625 179 L 807.6197265625 183" stroke-miterlimit="10"/></g><g transform="translate(-118,-38) scale(1,1)"><path fill="none" stroke="#000000" d="M 804.6197265625 187 L 804.6197265625 183 L 810.6197265625 183" stroke-miterlimit="10"/></g><g transform="translate(-118,-38) scale(1,1)"><path fill="none" stroke="#000000" d="M 810.6197265625 187 L 810.6197265625 183 L 804.6197265625 183" stroke-miterlimit="10"/></g><g transform="translate(-118,-38) scale(1,1)"><g><path fill="none" stroke="none"/><text fill="#000000" stroke="none" font-family="Arial" font-size="13px" font-style="normal" font-weight="bold" text-decoration="none" x="772.5" y="209">Smart Warehouse</text></g></g><g transform="translate(-118,-38) scale(1,1)"><path fill="none" stroke="#000000" d="M 531 191 L 512 136" stroke-miterlimit="10"/></g><g transform="translate(-118,-38) scale(1,1)"><path fill="#FFFFFF" stroke="none" d="M 507.2856417695863 142.61633143827623 C 507.2856417695863 138.75033783827624 510.41964816958625 135.61633143827623 514.2856417695863 135.61633143827623 C 518.1516353695863 135.61633143827623 521.2856417695863 138.75033783827624 521.2856417695863 142.61633143827623 C 521.2856417695863 146.48232503827623 518.1516353695863 149.61633143827623 514.2856417695863 149.61633143827623 C 510.41964816958625 149.61633143827623 507.2856417695863 146.48232503827623 507.2856417695863 142.61633143827623 Z"/></g><g transform="translate(-118,-38) scale(1,1)"><path fill="none" stroke="#000000" d="M 507.2856417695863 142.61633143827623 C 507.2856417695863 138.75033783827624 510.41964816958625 135.61633143827623 514.2856417695863 135.61633143827623 C 518.1516353695863 135.61633143827623 521.2856417695863 138.75033783827624 521.2856417695863 142.61633143827623 C 521.2856417695863 146.48232503827623 518.1516353695863 149.61633143827623 514.2856417695863 149.61633143827623 C 510.41964816958625 149.61633143827623 507.2856417695863 146.48232503827623 507.2856417695863 142.61633143827623 Z" stroke-miterlimit="10"/></g><g transform="translate(-118,-38) scale(1,1)"><path fill="none" stroke="#000000" d="M 516.5712835391727 149.23266287655244 L 512 136" stroke-miterlimit="10"/></g><g transform="translate(-118,-38) scale(1,1)"><path fill="none" stroke="#000000" d="M 520.9019732078625 140.3306896686899 L 507.66931033131004 144.90197320786257" stroke-miterlimit="10"/></g><g transform="translate(-118,-38) scale(1,1)"><rect fill="#C0C0C0" stroke="none" x="503" y="199" width="34.236328125" height="15" opacity="0.2"/></g><g transform="translate(-118,-38) scale(1,1)"><rect fill="#C0C0C0" stroke="none" x="503" y="213" width="85.5908203125" height="25" opacity="0.2"/></g><g transform="translate(-118,-38) scale(1,1)"><rect fill="#ffffff" stroke="none" x="496" y="207" width="85.5908203125" height="24"/></g><g transform="translate(-118,-38) scale(1,1)"><path fill="none" stroke="#000000" d="M 496 207 L 581.5908203125 207 L 581.5908203125 231 L 496 231 L 496 207 Z Z" stroke-miterlimit="10"/></g><g transform="translate(-118,-38) scale(1,1)"><rect fill="#ffffff" stroke="none" x="496" y="192" width="34.236328125" height="15"/></g><g transform="translate(-118,-38) scale(1,1)"><path fill="none" stroke="#000000" d="M 496 192 L 530.236328125 192 L 530.236328125 207 L 496 207 L 496 192 Z Z" stroke-miterlimit="10"/></g><g transform="translate(-118,-38) scale(1,1)"><rect fill="#ffffff" stroke="none" x="496" y="206" width="85.5908203125" height="25"/></g><g transform="translate(-118,-38) scale(1,1)"><path fill="none" stroke="#000000" d="M 496 206 L 581.5908203125 206 L 581.5908203125 231 L 496 231 L 496 206 Z Z" stroke-miterlimit="10"/></g><g transform="translate(-118,-38) scale(1,1)"><path fill="none" stroke="#000000" d="M 522.236328125 195 L 522.236328125 199" stroke-miterlimit="10"/></g><g transform="translate(-118,-38) scale(1,1)"><path fill="none" stroke="#000000" d="M 519.236328125 203 L 519.236328125 199 L 525.236328125 199" stroke-miterlimit="10"/></g><g transform="translate(-118,-38) scale(1,1)"><path fill="none" stroke="#000000" d="M 525.236328125 203 L 525.236328125 199 L 519.236328125 199" stroke-miterlimit="10"/></g><g transform="translate(-118,-38) scale(1,1)"><g><path fill="none" stroke="none"/><text fill="#000000" stroke="none" font-family="Arial" font-size="13px" font-style="normal" font-weight="bold" text-decoration="none" x="518.219482421875" y="225">Config</text></g></g></g></svg>